<mxfile host="app.diagrams.net" modified="2024-01-08T20:06:56.102Z" agent="Mozilla/5.0 (Windows NT 10.0; Win64; x64) AppleWebKit/537.36 (KHTML, like Gecko) Chrome/120.0.0.0 Safari/537.36" etag="VrdrrUBtv-Vci5Cb2nlB" version="22.1.17" type="device">
  <diagram name="Page-1" id="e7e014a7-5840-1c2e-5031-d8a46d1fe8dd">
    <mxGraphModel dx="836" dy="915" grid="1" gridSize="10" guides="1" tooltips="1" connect="1" arrows="1" fold="1" page="1" pageScale="1" pageWidth="1169" pageHeight="826" background="none" math="0" shadow="0">
      <root>
        <mxCell id="0" />
        <mxCell id="1" parent="0" />
        <mxCell id="Y2klyJKicraqUsd2dr-x-44" value="" style="ellipse;html=1;shape=startState;fillColor=#000000;strokeColor=#000000;" vertex="1" parent="1">
          <mxGeometry x="350" y="30" width="30" height="30" as="geometry" />
        </mxCell>
        <mxCell id="Y2klyJKicraqUsd2dr-x-45" value="" style="edgeStyle=orthogonalEdgeStyle;html=1;verticalAlign=bottom;endArrow=open;endSize=8;strokeColor=#000000;rounded=0;fillColor=#000000;" edge="1" source="Y2klyJKicraqUsd2dr-x-44" parent="1">
          <mxGeometry relative="1" as="geometry">
            <mxPoint x="365" y="120" as="targetPoint" />
          </mxGeometry>
        </mxCell>
        <mxCell id="Y2klyJKicraqUsd2dr-x-51" value="" style="group" vertex="1" connectable="0" parent="1">
          <mxGeometry x="190" y="119" width="360" height="556.4328571428572" as="geometry" />
        </mxCell>
        <mxCell id="Y2klyJKicraqUsd2dr-x-46" value="" style="rounded=1;whiteSpace=wrap;html=1;" vertex="1" parent="Y2klyJKicraqUsd2dr-x-51">
          <mxGeometry width="360" height="540" as="geometry" />
        </mxCell>
        <mxCell id="Y2klyJKicraqUsd2dr-x-50" value="&amp;lt;&amp;lt;Раздел&amp;gt;&amp;gt;&lt;br&gt;Главная страница&lt;br&gt;" style="text;html=1;strokeColor=none;fillColor=none;align=center;verticalAlign=middle;whiteSpace=wrap;rounded=0;" vertex="1" parent="Y2klyJKicraqUsd2dr-x-51">
          <mxGeometry x="120" y="19.285714285714285" width="120" height="57.857142857142854" as="geometry" />
        </mxCell>
        <mxCell id="Y2klyJKicraqUsd2dr-x-52" value="" style="rounded=1;whiteSpace=wrap;html=1;" vertex="1" parent="Y2klyJKicraqUsd2dr-x-51">
          <mxGeometry x="44" y="84.71" width="280" height="205.29" as="geometry" />
        </mxCell>
        <mxCell id="Y2klyJKicraqUsd2dr-x-53" value="&amp;lt;&amp;lt;Header&amp;gt;&amp;gt;&lt;br&gt;Логотип, имя сайта" style="text;html=1;strokeColor=none;fillColor=none;align=center;verticalAlign=middle;whiteSpace=wrap;rounded=0;" vertex="1" parent="Y2klyJKicraqUsd2dr-x-51">
          <mxGeometry x="120" y="60.71428571428571" width="120" height="96.42857142857143" as="geometry" />
        </mxCell>
        <mxCell id="Y2klyJKicraqUsd2dr-x-54" value="&amp;lt;&amp;lt;Кнопка&amp;gt;&amp;gt;&lt;br&gt;Вход в систему&lt;br&gt;(Личный кабинет)" style="rounded=1;whiteSpace=wrap;html=1;" vertex="1" parent="Y2klyJKicraqUsd2dr-x-51">
          <mxGeometry x="200" y="135.14" width="90" height="64.86" as="geometry" />
        </mxCell>
        <mxCell id="Y2klyJKicraqUsd2dr-x-55" value="&amp;lt;&amp;lt;Переключатель&amp;gt;&amp;gt;&lt;br&gt;Темная тема" style="rounded=1;whiteSpace=wrap;html=1;" vertex="1" parent="Y2klyJKicraqUsd2dr-x-51">
          <mxGeometry x="60" y="135.14" width="120" height="64.86" as="geometry" />
        </mxCell>
        <mxCell id="Y2klyJKicraqUsd2dr-x-56" value="&amp;lt;&amp;lt;Content&amp;gt;&amp;gt;&lt;br&gt;Сетка с новыми видео (кликабельно)" style="rounded=1;whiteSpace=wrap;html=1;" vertex="1" parent="Y2klyJKicraqUsd2dr-x-51">
          <mxGeometry x="124" y="404.63" width="120" height="55.37" as="geometry" />
        </mxCell>
        <mxCell id="Y2klyJKicraqUsd2dr-x-57" value="&amp;lt;&amp;lt;Текстовое поле&amp;gt;&amp;gt;&lt;br&gt;Поле для вода поискового запроса" style="rounded=1;whiteSpace=wrap;html=1;" vertex="1" parent="Y2klyJKicraqUsd2dr-x-51">
          <mxGeometry x="50" y="329.27" width="120" height="60.73" as="geometry" />
        </mxCell>
        <mxCell id="Y2klyJKicraqUsd2dr-x-58" value="&amp;lt;&amp;lt;Кнопка&amp;gt;&amp;gt;&lt;br&gt;Кнопка выполнения поиска" style="rounded=1;whiteSpace=wrap;html=1;" vertex="1" parent="Y2klyJKicraqUsd2dr-x-51">
          <mxGeometry x="220" y="330.21" width="90" height="59.79" as="geometry" />
        </mxCell>
        <mxCell id="Y2klyJKicraqUsd2dr-x-76" value="&amp;lt;&amp;lt;Кнопка&amp;gt;&amp;gt;&lt;br&gt;Регистрация" style="rounded=1;whiteSpace=wrap;html=1;" vertex="1" parent="Y2klyJKicraqUsd2dr-x-51">
          <mxGeometry x="200" y="210" width="90" height="64.86" as="geometry" />
        </mxCell>
        <mxCell id="Y2klyJKicraqUsd2dr-x-110" value="&amp;lt;&amp;lt;Кнопка&amp;gt;&amp;gt;&lt;br&gt;Загрузить видео" style="rounded=1;whiteSpace=wrap;html=1;" vertex="1" parent="Y2klyJKicraqUsd2dr-x-51">
          <mxGeometry x="75" y="210" width="90" height="64.86" as="geometry" />
        </mxCell>
        <mxCell id="Y2klyJKicraqUsd2dr-x-120" value="" style="rounded=1;whiteSpace=wrap;html=1;" vertex="1" parent="Y2klyJKicraqUsd2dr-x-51">
          <mxGeometry x="30" y="470" width="300" height="60" as="geometry" />
        </mxCell>
        <mxCell id="Y2klyJKicraqUsd2dr-x-121" value="&amp;lt;&amp;lt;Footer&amp;gt;&amp;gt;&lt;br&gt;Ссылки на соц. сети, обратная связь&lt;br&gt;копирайт, terms of use" style="text;html=1;strokeColor=none;fillColor=none;align=center;verticalAlign=middle;whiteSpace=wrap;rounded=0;" vertex="1" parent="Y2klyJKicraqUsd2dr-x-51">
          <mxGeometry x="65" y="451.79" width="230" height="96.43" as="geometry" />
        </mxCell>
        <mxCell id="Y2klyJKicraqUsd2dr-x-65" value="" style="rounded=1;whiteSpace=wrap;html=1;" vertex="1" parent="1">
          <mxGeometry x="690" y="120" width="330" height="190" as="geometry" />
        </mxCell>
        <mxCell id="Y2klyJKicraqUsd2dr-x-66" value="&amp;lt;&amp;lt;Модальное окно&amp;gt;&amp;gt;&lt;br&gt;Диалог авторизации" style="text;html=1;strokeColor=none;fillColor=none;align=center;verticalAlign=middle;whiteSpace=wrap;rounded=0;" vertex="1" parent="1">
          <mxGeometry x="780" y="130" width="150" height="30" as="geometry" />
        </mxCell>
        <mxCell id="Y2klyJKicraqUsd2dr-x-68" value="&amp;lt;&amp;lt;Текстовое поле&amp;gt;&amp;gt;&lt;br&gt;Логин" style="rounded=1;whiteSpace=wrap;html=1;" vertex="1" parent="1">
          <mxGeometry x="710" y="170" width="120" height="60" as="geometry" />
        </mxCell>
        <mxCell id="Y2klyJKicraqUsd2dr-x-69" value="&amp;lt;&amp;lt;Текстовое поле&amp;gt;&amp;gt;&lt;br&gt;Пароль" style="rounded=1;whiteSpace=wrap;html=1;" vertex="1" parent="1">
          <mxGeometry x="870" y="170" width="120" height="60" as="geometry" />
        </mxCell>
        <mxCell id="Y2klyJKicraqUsd2dr-x-88" style="edgeStyle=orthogonalEdgeStyle;rounded=0;orthogonalLoop=1;jettySize=auto;html=1;exitX=1;exitY=0.5;exitDx=0;exitDy=0;entryX=0.5;entryY=0;entryDx=0;entryDy=0;" edge="1" parent="1" source="Y2klyJKicraqUsd2dr-x-70" target="Y2klyJKicraqUsd2dr-x-87">
          <mxGeometry relative="1" as="geometry" />
        </mxCell>
        <mxCell id="Y2klyJKicraqUsd2dr-x-70" value="&amp;lt;&amp;lt;Кнопка&amp;gt;&amp;gt;&lt;br&gt;Войти" style="rounded=1;whiteSpace=wrap;html=1;" vertex="1" parent="1">
          <mxGeometry x="810" y="240.00142857142853" width="90" height="58.57142857142857" as="geometry" />
        </mxCell>
        <mxCell id="Y2klyJKicraqUsd2dr-x-71" value="&amp;lt;&amp;lt;Раздел&amp;gt;&amp;gt;&lt;br&gt;Просмотр видео" style="rounded=1;whiteSpace=wrap;html=1;" vertex="1" parent="1">
          <mxGeometry x="570" y="522.32" width="120" height="60" as="geometry" />
        </mxCell>
        <mxCell id="Y2klyJKicraqUsd2dr-x-73" value="&amp;lt;&amp;lt;Раздел&amp;gt;&amp;gt;&lt;br&gt;Результаты поиска" style="rounded=1;whiteSpace=wrap;html=1;" vertex="1" parent="1">
          <mxGeometry x="570" y="450" width="120" height="60" as="geometry" />
        </mxCell>
        <mxCell id="Y2klyJKicraqUsd2dr-x-74" style="edgeStyle=orthogonalEdgeStyle;rounded=0;orthogonalLoop=1;jettySize=auto;html=1;exitX=1;exitY=0.5;exitDx=0;exitDy=0;entryX=0;entryY=0.5;entryDx=0;entryDy=0;" edge="1" parent="1" source="Y2klyJKicraqUsd2dr-x-58" target="Y2klyJKicraqUsd2dr-x-73">
          <mxGeometry relative="1" as="geometry" />
        </mxCell>
        <mxCell id="Y2klyJKicraqUsd2dr-x-78" value="" style="rounded=1;whiteSpace=wrap;html=1;" vertex="1" parent="1">
          <mxGeometry x="712" y="340" width="330" height="290" as="geometry" />
        </mxCell>
        <mxCell id="Y2klyJKicraqUsd2dr-x-79" value="&amp;lt;&amp;lt;Модальное окно&amp;gt;&amp;gt;&lt;br&gt;Диалог регистрации" style="text;html=1;strokeColor=none;fillColor=none;align=center;verticalAlign=middle;whiteSpace=wrap;rounded=0;" vertex="1" parent="1">
          <mxGeometry x="802" y="350" width="150" height="30" as="geometry" />
        </mxCell>
        <mxCell id="Y2klyJKicraqUsd2dr-x-80" value="&amp;lt;&amp;lt;Текстовое поле&amp;gt;&amp;gt;&lt;br&gt;Логин" style="rounded=1;whiteSpace=wrap;html=1;" vertex="1" parent="1">
          <mxGeometry x="732" y="390" width="120" height="60" as="geometry" />
        </mxCell>
        <mxCell id="Y2klyJKicraqUsd2dr-x-81" value="&amp;lt;&amp;lt;Текстовое поле&amp;gt;&amp;gt;&lt;br&gt;Пароль" style="rounded=1;whiteSpace=wrap;html=1;" vertex="1" parent="1">
          <mxGeometry x="892" y="390" width="120" height="60" as="geometry" />
        </mxCell>
        <mxCell id="Y2klyJKicraqUsd2dr-x-95" style="edgeStyle=orthogonalEdgeStyle;rounded=0;orthogonalLoop=1;jettySize=auto;html=1;exitX=1;exitY=0.5;exitDx=0;exitDy=0;" edge="1" parent="1" source="Y2klyJKicraqUsd2dr-x-82" target="Y2klyJKicraqUsd2dr-x-94">
          <mxGeometry relative="1" as="geometry" />
        </mxCell>
        <mxCell id="Y2klyJKicraqUsd2dr-x-82" value="&amp;lt;&amp;lt;Кнопка&amp;gt;&amp;gt;&lt;br&gt;Войти" style="rounded=1;whiteSpace=wrap;html=1;" vertex="1" parent="1">
          <mxGeometry x="892" y="540.7114285714284" width="90" height="58.57142857142857" as="geometry" />
        </mxCell>
        <mxCell id="Y2klyJKicraqUsd2dr-x-83" value="&amp;lt;&amp;lt;Текстовое поле&amp;gt;&amp;gt;&lt;br&gt;Повторение пароля" style="rounded=1;whiteSpace=wrap;html=1;" vertex="1" parent="1">
          <mxGeometry x="892" y="460" width="120" height="60" as="geometry" />
        </mxCell>
        <mxCell id="Y2klyJKicraqUsd2dr-x-84" value="&amp;lt;&amp;lt;Текстовое поле&amp;gt;&amp;gt;&lt;br&gt;Имя" style="rounded=1;whiteSpace=wrap;html=1;" vertex="1" parent="1">
          <mxGeometry x="732" y="460" width="120" height="60" as="geometry" />
        </mxCell>
        <mxCell id="Y2klyJKicraqUsd2dr-x-85" value="&amp;lt;&amp;lt;Текстовое поле&amp;gt;&amp;gt;&lt;br&gt;E-mail" style="rounded=1;whiteSpace=wrap;html=1;" vertex="1" parent="1">
          <mxGeometry x="732" y="539.28" width="120" height="60" as="geometry" />
        </mxCell>
        <mxCell id="Y2klyJKicraqUsd2dr-x-86" style="edgeStyle=orthogonalEdgeStyle;rounded=0;orthogonalLoop=1;jettySize=auto;html=1;exitX=1;exitY=0.5;exitDx=0;exitDy=0;" edge="1" parent="1" source="Y2klyJKicraqUsd2dr-x-76" target="Y2klyJKicraqUsd2dr-x-78">
          <mxGeometry relative="1" as="geometry">
            <mxPoint x="710" y="400" as="targetPoint" />
            <Array as="points">
              <mxPoint x="596" y="362" />
              <mxPoint x="596" y="400" />
            </Array>
          </mxGeometry>
        </mxCell>
        <mxCell id="Y2klyJKicraqUsd2dr-x-90" style="edgeStyle=orthogonalEdgeStyle;rounded=0;orthogonalLoop=1;jettySize=auto;html=1;exitX=1;exitY=0.5;exitDx=0;exitDy=0;" edge="1" parent="1" source="Y2klyJKicraqUsd2dr-x-87">
          <mxGeometry relative="1" as="geometry">
            <mxPoint x="1110" y="230" as="targetPoint" />
          </mxGeometry>
        </mxCell>
        <mxCell id="Y2klyJKicraqUsd2dr-x-87" value="" style="rhombus;whiteSpace=wrap;html=1;" vertex="1" parent="1">
          <mxGeometry x="1090" y="290" width="40" height="40" as="geometry" />
        </mxCell>
        <mxCell id="Y2klyJKicraqUsd2dr-x-89" value="&amp;lt;&amp;lt;Pop-up&amp;gt;&amp;gt;&lt;br&gt;Сообщение об ошибке" style="rounded=1;whiteSpace=wrap;html=1;" vertex="1" parent="1">
          <mxGeometry x="1060" y="170.00142857142853" width="90" height="58.57142857142857" as="geometry" />
        </mxCell>
        <mxCell id="Y2klyJKicraqUsd2dr-x-92" style="edgeStyle=orthogonalEdgeStyle;rounded=0;orthogonalLoop=1;jettySize=auto;html=1;exitX=0;exitY=0.5;exitDx=0;exitDy=0;entryX=1.011;entryY=0.39;entryDx=0;entryDy=0;entryPerimeter=0;" edge="1" parent="1" source="Y2klyJKicraqUsd2dr-x-87" target="Y2klyJKicraqUsd2dr-x-46">
          <mxGeometry relative="1" as="geometry">
            <Array as="points">
              <mxPoint x="1040" y="310" />
              <mxPoint x="1040" y="331" />
            </Array>
          </mxGeometry>
        </mxCell>
        <mxCell id="Y2klyJKicraqUsd2dr-x-93" style="edgeStyle=orthogonalEdgeStyle;rounded=0;orthogonalLoop=1;jettySize=auto;html=1;entryX=1.008;entryY=0.416;entryDx=0;entryDy=0;entryPerimeter=0;" edge="1" parent="1" source="Y2klyJKicraqUsd2dr-x-89" target="Y2klyJKicraqUsd2dr-x-65">
          <mxGeometry relative="1" as="geometry" />
        </mxCell>
        <mxCell id="Y2klyJKicraqUsd2dr-x-98" style="edgeStyle=orthogonalEdgeStyle;rounded=0;orthogonalLoop=1;jettySize=auto;html=1;exitX=1;exitY=0.5;exitDx=0;exitDy=0;entryX=1;entryY=0.5;entryDx=0;entryDy=0;" edge="1" parent="1" source="Y2klyJKicraqUsd2dr-x-94" target="Y2klyJKicraqUsd2dr-x-96">
          <mxGeometry relative="1" as="geometry">
            <Array as="points">
              <mxPoint x="1180" y="570" />
              <mxPoint x="1180" y="499" />
            </Array>
          </mxGeometry>
        </mxCell>
        <mxCell id="Y2klyJKicraqUsd2dr-x-94" value="" style="rhombus;whiteSpace=wrap;html=1;" vertex="1" parent="1">
          <mxGeometry x="1080" y="550" width="40" height="40" as="geometry" />
        </mxCell>
        <mxCell id="Y2klyJKicraqUsd2dr-x-96" value="&amp;lt;&amp;lt;Pop-up&amp;gt;&amp;gt;&lt;br&gt;Сообщение об ошибке" style="rounded=1;whiteSpace=wrap;html=1;" vertex="1" parent="1">
          <mxGeometry x="1080" y="470.0014285714285" width="90" height="58.57142857142857" as="geometry" />
        </mxCell>
        <mxCell id="Y2klyJKicraqUsd2dr-x-101" style="edgeStyle=orthogonalEdgeStyle;rounded=0;orthogonalLoop=1;jettySize=auto;html=1;exitX=0;exitY=0.5;exitDx=0;exitDy=0;entryX=1.002;entryY=0.487;entryDx=0;entryDy=0;entryPerimeter=0;" edge="1" parent="1" source="Y2klyJKicraqUsd2dr-x-96" target="Y2klyJKicraqUsd2dr-x-78">
          <mxGeometry relative="1" as="geometry" />
        </mxCell>
        <mxCell id="Y2klyJKicraqUsd2dr-x-105" style="edgeStyle=orthogonalEdgeStyle;rounded=0;orthogonalLoop=1;jettySize=auto;html=1;exitX=0.5;exitY=1;exitDx=0;exitDy=0;" edge="1" parent="1" source="Y2klyJKicraqUsd2dr-x-102">
          <mxGeometry relative="1" as="geometry">
            <mxPoint x="619.7142857142858" y="260" as="targetPoint" />
          </mxGeometry>
        </mxCell>
        <mxCell id="Y2klyJKicraqUsd2dr-x-102" value="" style="rhombus;whiteSpace=wrap;html=1;" vertex="1" parent="1">
          <mxGeometry x="600" y="170" width="40" height="40" as="geometry" />
        </mxCell>
        <mxCell id="Y2klyJKicraqUsd2dr-x-104" style="edgeStyle=orthogonalEdgeStyle;rounded=0;orthogonalLoop=1;jettySize=auto;html=1;exitX=0.75;exitY=0;exitDx=0;exitDy=0;entryX=0.5;entryY=0;entryDx=0;entryDy=0;" edge="1" parent="1" source="Y2klyJKicraqUsd2dr-x-54" target="Y2klyJKicraqUsd2dr-x-102">
          <mxGeometry relative="1" as="geometry" />
        </mxCell>
        <mxCell id="Y2klyJKicraqUsd2dr-x-106" value="&amp;lt;&amp;lt;Раздел&amp;gt;&amp;gt;&lt;br&gt;Личный кабинет" style="rounded=1;whiteSpace=wrap;html=1;" vertex="1" parent="1">
          <mxGeometry x="560" y="260" width="120" height="60" as="geometry" />
        </mxCell>
        <mxCell id="Y2klyJKicraqUsd2dr-x-107" value="[authorized]" style="text;html=1;strokeColor=none;fillColor=none;align=center;verticalAlign=middle;whiteSpace=wrap;rounded=0;" vertex="1" parent="1">
          <mxGeometry x="560" y="210" width="120" height="30" as="geometry" />
        </mxCell>
        <mxCell id="Y2klyJKicraqUsd2dr-x-109" style="edgeStyle=orthogonalEdgeStyle;rounded=0;orthogonalLoop=1;jettySize=auto;html=1;exitX=1;exitY=0.5;exitDx=0;exitDy=0;entryX=0.007;entryY=0.373;entryDx=0;entryDy=0;entryPerimeter=0;" edge="1" parent="1" source="Y2klyJKicraqUsd2dr-x-102" target="Y2klyJKicraqUsd2dr-x-65">
          <mxGeometry relative="1" as="geometry" />
        </mxCell>
        <mxCell id="Y2klyJKicraqUsd2dr-x-114" style="edgeStyle=orthogonalEdgeStyle;rounded=0;orthogonalLoop=1;jettySize=auto;html=1;exitX=0;exitY=0.5;exitDx=0;exitDy=0;entryX=0.5;entryY=0;entryDx=0;entryDy=0;" edge="1" parent="1" source="Y2klyJKicraqUsd2dr-x-111" target="Y2klyJKicraqUsd2dr-x-65">
          <mxGeometry relative="1" as="geometry" />
        </mxCell>
        <mxCell id="Y2klyJKicraqUsd2dr-x-117" style="edgeStyle=orthogonalEdgeStyle;rounded=0;orthogonalLoop=1;jettySize=auto;html=1;exitX=0.5;exitY=1;exitDx=0;exitDy=0;" edge="1" parent="1" source="Y2klyJKicraqUsd2dr-x-111" target="Y2klyJKicraqUsd2dr-x-116">
          <mxGeometry relative="1" as="geometry" />
        </mxCell>
        <mxCell id="Y2klyJKicraqUsd2dr-x-111" value="" style="rhombus;whiteSpace=wrap;html=1;" vertex="1" parent="1">
          <mxGeometry x="110" y="390" width="40" height="40" as="geometry" />
        </mxCell>
        <mxCell id="Y2klyJKicraqUsd2dr-x-112" style="edgeStyle=orthogonalEdgeStyle;rounded=0;orthogonalLoop=1;jettySize=auto;html=1;exitX=0;exitY=0.5;exitDx=0;exitDy=0;entryX=0.5;entryY=0;entryDx=0;entryDy=0;" edge="1" parent="1" source="Y2klyJKicraqUsd2dr-x-110" target="Y2klyJKicraqUsd2dr-x-111">
          <mxGeometry relative="1" as="geometry" />
        </mxCell>
        <mxCell id="Y2klyJKicraqUsd2dr-x-115" value="[non-authorized]" style="text;html=1;strokeColor=none;fillColor=none;align=center;verticalAlign=middle;whiteSpace=wrap;rounded=0;" vertex="1" parent="1">
          <mxGeometry x="80" y="290" width="120" height="30" as="geometry" />
        </mxCell>
        <mxCell id="Y2klyJKicraqUsd2dr-x-116" value="&amp;lt;&amp;lt;Раздел&amp;gt;&amp;gt;&lt;br&gt;Загрузка видео" style="rounded=1;whiteSpace=wrap;html=1;" vertex="1" parent="1">
          <mxGeometry x="50" y="480.71" width="120" height="60" as="geometry" />
        </mxCell>
        <mxCell id="Y2klyJKicraqUsd2dr-x-118" style="edgeStyle=orthogonalEdgeStyle;rounded=0;orthogonalLoop=1;jettySize=auto;html=1;exitX=1;exitY=0.5;exitDx=0;exitDy=0;entryX=0;entryY=0.5;entryDx=0;entryDy=0;" edge="1" parent="1" source="Y2klyJKicraqUsd2dr-x-56" target="Y2klyJKicraqUsd2dr-x-71">
          <mxGeometry relative="1" as="geometry" />
        </mxCell>
        <mxCell id="Y2klyJKicraqUsd2dr-x-119" style="edgeStyle=orthogonalEdgeStyle;rounded=0;orthogonalLoop=1;jettySize=auto;html=1;exitX=0.5;exitY=1;exitDx=0;exitDy=0;entryX=0.781;entryY=1.009;entryDx=0;entryDy=0;entryPerimeter=0;" edge="1" parent="1" source="Y2klyJKicraqUsd2dr-x-94" target="Y2klyJKicraqUsd2dr-x-46">
          <mxGeometry relative="1" as="geometry">
            <Array as="points">
              <mxPoint x="1100" y="690" />
              <mxPoint x="471" y="690" />
            </Array>
          </mxGeometry>
        </mxCell>
      </root>
    </mxGraphModel>
  </diagram>
</mxfile>
